<svg xmlns="http://www.w3.org/2000/svg" version="1.1" xmlns:xlink="http://www.w3.org/1999/xlink" xmlns:svgjs="http://svgjs.com/svgjs" width="512" height="512" x="0" y="0" viewBox="0 0 24 24" style="enable-background:new 0 0 512 512" xml:space="preserve" class=""><g><g fill="#000"><path d="M9.877 3.153a.15.15 0 0 0-.134-.241l-3.503.37a.15.15 0 0 0-.133.166l.397 3.64a.15.15 0 0 0 .268.075zM17.224 7.163a.15.15 0 0 0 .268-.075l.397-3.64a.15.15 0 0 0-.133-.166l-3.503-.37a.15.15 0 0 0-.134.24zM7.836 8.635a.15.15 0 0 1-.119-.242l4.162-5.376a.15.15 0 0 1 .238 0l4.162 5.376a.15.15 0 0 1-.119.242zM8.993 18.26c.068.159-.14.288-.251.158l-6.9-8.035a.15.15 0 0 1 .113-.248h3.452a.15.15 0 0 1 .138.09zM18.588 10.135a.15.15 0 0 0-.137.09l-3.448 8.036c-.068.158.14.287.251.157l6.9-8.035a.15.15 0 0 0-.113-.248zM18.85 8.468a.15.15 0 0 0 .149.167h2.78a.15.15 0 0 0 .12-.24l-2.425-3.254a.15.15 0 0 0-.269.073zM4.791 5.214a.15.15 0 0 0-.27-.073L2.098 8.395a.15.15 0 0 0 .12.24h2.78a.15.15 0 0 0 .15-.167zM7.228 10.344a.15.15 0 0 1 .138-.21h9.264c.107 0 .18.11.138.21l-4.632 10.794a.15.15 0 0 1-.276 0z" fill="#000000" data-original="#000000"></path></g></g></svg>