<svg xmlns="http://www.w3.org/2000/svg" version="1.1" xmlns:xlink="http://www.w3.org/1999/xlink" xmlns:svgjs="http://svgjs.com/svgjs" width="512" height="512" x="0" y="0" viewBox="0 0 313.876 313.876" style="enable-background:new 0 0 512 512" xml:space="preserve" class=""><g><path d="M313.876 94.997a7.473 7.473 0 0 0-2.342-5.444L240.66 13.456c-.033-.035-.07-.065-.104-.101a7.7 7.7 0 0 0-.344-.332 6.907 6.907 0 0 0-.203-.181 7.108 7.108 0 0 0-.385-.302 8.42 8.42 0 0 0-.215-.156 8.437 8.437 0 0 0-.406-.257c-.082-.048-.162-.098-.245-.143a7.802 7.802 0 0 0-.399-.199c-.099-.046-.198-.094-.298-.136a7.581 7.581 0 0 0-.374-.141c-.119-.042-.237-.084-.358-.121-.04-.012-.076-.028-.116-.039-.087-.024-.174-.039-.26-.06-.118-.029-.235-.058-.354-.082a7.187 7.187 0 0 0-.456-.071c-.092-.012-.183-.026-.276-.034a7.422 7.422 0 0 0-.555-.029c-.047-.001-.093-.007-.139-.007H78.676c-.047 0-.093.006-.139.007-.185.003-.37.011-.555.029-.093.008-.184.022-.275.034a8.982 8.982 0 0 0-.456.071c-.119.023-.237.053-.354.082-.087.021-.174.036-.26.06-.04.011-.077.027-.116.039-.121.037-.239.079-.358.121-.126.045-.252.09-.374.141-.101.042-.199.089-.298.136a6.012 6.012 0 0 0-.644.342 7.97 7.97 0 0 0-.406.257c-.073.05-.144.103-.215.156a7.52 7.52 0 0 0-.385.302 6.907 6.907 0 0 0-.203.181 7.7 7.7 0 0 0-.344.332c-.033.035-.071.065-.104.101L2.003 89.886l-.013.016a7.67 7.67 0 0 0-.672.837c-.063.092-.11.191-.169.285-.125.2-.255.397-.362.611l-.011.027c-.067.136-.115.279-.174.418-.08.189-.167.376-.23.569-.045.137-.072.279-.109.418-.054.201-.113.402-.149.606-.026.146-.034.292-.052.439-.024.201-.052.402-.059.604-.006.154.005.309.009.463.005.196.006.391.027.585.016.157.048.313.074.469.032.192.063.384.11.574.038.152.089.301.136.451.061.191.123.381.199.568.022.054.034.11.057.164.042.095.098.18.143.272.086.177.175.351.275.522.086.147.179.288.274.427.06.089.108.183.173.27l149.433 200.311c.181.243.376.472.582.688.027.028.057.051.084.079.225.229.465.44.716.637.083.066.169.127.255.189.225.162.457.31.698.445.077.043.15.091.228.131.312.162.635.301.967.418.081.028.165.049.247.074.27.084.544.154.823.208.104.02.207.04.312.055.362.054.728.091 1.1.091s.738-.037 1.1-.091c.105-.016.208-.036.312-.055.279-.054.553-.123.823-.208.082-.025.166-.046.247-.074.332-.117.655-.256.967-.418.078-.041.151-.088.228-.131.24-.136.473-.284.698-.445.086-.062.172-.124.255-.189.251-.197.491-.408.717-.638.027-.027.057-.051.084-.079.206-.216.401-.445.582-.688L312.112 99.824a7.467 7.467 0 0 0 1.764-4.827zm-203.676 7.5h93.446l-46.723 165.245L110.2 102.497zm-4.241-15L88.59 26.068h136.667l-17.369 61.43H105.959zm132.805-54.068 50.358 54.069h-65.646l15.288-54.069zm-163.681 0 15.288 54.069H24.725l50.358-54.069zm19.53 69.068 44.049 155.788L22.443 102.497h72.17zm80.573 155.788 44.049-155.788h72.169L175.186 258.285z" style="" fill="#222220" data-original="#222220" class=""></path></g></svg>